<svg xmlns="http://www.w3.org/2000/svg" xmlns:xlink="http://www.w3.org/1999/xlink" viewBox="0 0 106.92 42.95"><defs><style>.cls-1{fill:#bc99ff;}.cls-2{fill:#80ffb3;}.cls-3{fill:#e879f9;}.cls-4{fill:#8be9fd;}.cls-5{fill:url(#linear-gradient);}.cls-6{fill:url(#linear-gradient-2);}.cls-7{fill:url(#linear-gradient-3);}.cls-8{fill:url(#linear-gradient-4);}.cls-9{fill:url(#linear-gradient-5);}</style><linearGradient id="linear-gradient" x1="94.03" y1="20.41" x2="94.03" y2="19.5" gradientUnits="userSpaceOnUse"><stop offset="0.08" stop-color="#8be9fd"/><stop offset="0.64" stop-color="#37a0f0"/><stop offset="1" stop-color="#006fe7"/></linearGradient><linearGradient id="linear-gradient-2" x1="92.57" y1="21.86" x2="92.57" y2="20.95" xlink:href="#linear-gradient"/><linearGradient id="linear-gradient-3" x1="92.57" y1="18.95" x2="92.57" y2="18.04" xlink:href="#linear-gradient"/><linearGradient id="linear-gradient-4" x1="91.12" y1="20.41" x2="91.12" y2="19.5" xlink:href="#linear-gradient"/><linearGradient id="linear-gradient-5" x1="77.39" y1="21.91" x2="77.39" y2="18.09" xlink:href="#linear-gradient"/></defs><title>mea-logo</title><g id="Layer_2" data-name="Layer 2"><g id="logo"><path class="cls-1" d="M5.08,41.6c0,.74.42,1.35.94,1.35h8.31c.52,0,.94-.61.94-1.35V30.25a1,1,0,0,0-.9-1.08H6a1,1,0,0,0-.9,1.08Z"/><circle class="cls-1" cx="10.18" cy="22.9" r="4.09"/><path class="cls-2" d="M14.33.77H.94C.42.77,0,1.38,0,2.13v9.71c0,.73.41,1.33.92,1.35l3.24.07c.51,0,.92.61.92,1.35v.94A1,1,0,0,0,6,16.63h8.39a1,1,0,0,0,.9-1.08V2.13C15.27,1.38,14.85.77,14.33.77Z"/><path class="cls-3" d="M56,5.81Q50.63,0,39.49,0T23,5.78q-5.43,5.78-5.42,15.54T23,36.9q5.41,5.81,16.54,5.81T56,36.9q5.41-5.8,5.42-15.58T56,5.81ZM47.62,22.92,37.53,29.5a1.87,1.87,0,0,1-2.89-1.57V14.78a1.87,1.87,0,0,1,2.89-1.57l10.09,6.58A1.87,1.87,0,0,1,47.62,22.92Z"/><path class="cls-4" d="M101.5,5.81Q96.09,0,85,0T68.41,5.78Q63,11.56,63,21.32T68.41,36.9Q73.82,42.71,85,42.71T101.5,36.9q5.41-5.8,5.42-15.58T101.5,5.81ZM96.53,23a4.48,4.48,0,0,1-4.26,4.65h0a1.73,1.73,0,0,1-1.61-1.2,5.94,5.94,0,0,0-11.4,0,1.73,1.73,0,0,1-1.61,1.2,4.08,4.08,0,0,1-3-1.36A4.85,4.85,0,0,1,73.37,23V19.74a4.48,4.48,0,0,1,4.27-4.65H92.27a4.48,4.48,0,0,1,4.26,4.65Z"/><rect class="cls-5" x="93.57" y="19.5" width="0.91" height="0.91" rx="0.34" ry="0.34"/><rect class="cls-6" x="92.12" y="20.95" width="0.91" height="0.91" rx="0.34" ry="0.34"/><rect class="cls-7" x="92.12" y="18.04" width="0.91" height="0.91" rx="0.34" ry="0.34"/><rect class="cls-8" x="90.66" y="19.5" width="0.91" height="0.91" rx="0.34" ry="0.34"/><path class="cls-9" d="M79,19.54H77.85V18.42a.34.34,0,0,0-.34-.33h-.23a.34.34,0,0,0-.34.33v1.12H75.82a.34.34,0,0,0-.34.34v.23a.34.34,0,0,0,.34.34h1.12v1.12a.34.34,0,0,0,.34.34h.23a.34.34,0,0,0,.34-.34V20.45H79a.34.34,0,0,0,.33-.34v-.23A.34.34,0,0,0,79,19.54Z"/><path class="cls-4" d="M79.3,19.88v.23a.34.34,0,0,1-.33.34H77.85v1.12a.34.34,0,0,1-.34.34h-.23a.34.34,0,0,1-.34-.34V20.45H75.82a.34.34,0,0,1-.34-.34v-.23a.34.34,0,0,1,.34-.34h1.12V18.42a.34.34,0,0,1,.34-.33h.23a.34.34,0,0,1,.34.33v1.12H79A.34.34,0,0,1,79.3,19.88Z"/><rect class="cls-4" x="90.66" y="19.5" width="0.91" height="0.91" rx="0.34" ry="0.34"/><rect class="cls-4" x="92.12" y="18.04" width="0.91" height="0.91" rx="0.34" ry="0.34"/><rect class="cls-4" x="92.12" y="20.95" width="0.91" height="0.91" rx="0.34" ry="0.34"/><rect class="cls-4" x="93.57" y="19.5" width="0.91" height="0.91" rx="0.34" ry="0.34"/><rect class="cls-4" x="76.94" y="18.09" width="0.91" height="3.82" rx="0.34" ry="0.34"/><rect class="cls-4" x="75.48" y="19.54" width="3.82" height="0.91" rx="0.34" ry="0.34"/><rect class="cls-4" x="92.12" y="18.04" width="0.91" height="0.91" rx="0.34" ry="0.34"/><rect class="cls-4" x="93.57" y="19.5" width="0.91" height="0.91" rx="0.34" ry="0.34"/><rect class="cls-4" x="90.66" y="19.5" width="0.91" height="0.91" rx="0.34" ry="0.34"/><rect class="cls-4" x="92.12" y="20.95" width="0.91" height="0.91" rx="0.34" ry="0.34"/></g></g></svg>