<svg xmlns="http://www.w3.org/2000/svg" xmlns:xlink="http://www.w3.org/1999/xlink" viewBox="0 0 49.34 49.34"><defs><style>.cls-1{fill:none;stroke-miterlimit:10;stroke-width:1.3px;stroke:url(#linear-gradient);}.cls-2{fill:#5cb8d1;}.cls-3{fill:url(#linear-gradient-2);}</style><linearGradient id="linear-gradient" x1="-1336.12" y1="1317.09" x2="-1286.79" y2="1317.09" gradientTransform="translate(1426.26 1245.4) rotate(86.18)" gradientUnits="userSpaceOnUse"><stop offset="0.08" stop-color="#17d2ff"/><stop offset="0.13" stop-color="#25caff"/><stop offset="0.22" stop-color="#49b5ff"/><stop offset="0.35" stop-color="#8492ff"/><stop offset="0.5" stop-color="#d463ff"/><stop offset="0.52" stop-color="#df5cff"/><stop offset="0.78" stop-color="#f2328e"/><stop offset="0.96" stop-color="#ff1744"/></linearGradient><linearGradient id="linear-gradient-2" x1="24.67" y1="20.13" x2="24.67" y2="39" gradientUnits="userSpaceOnUse"><stop offset="0.08" stop-color="#5cb8d1"/><stop offset="0.1" stop-color="#65b1d4"/><stop offset="0.22" stop-color="#998de7"/><stop offset="0.33" stop-color="#bf72f4"/><stop offset="0.41" stop-color="#d662fc"/><stop offset="0.47" stop-color="#df5cff"/><stop offset="0.76" stop-color="#f2328e"/><stop offset="0.96" stop-color="#ff1744"/></linearGradient></defs><title>trash-btn</title><g id="Layer_2" data-name="Layer 2"><g id="elements"><circle class="cls-1" cx="24.67" cy="24.67" r="24.02"/><path class="cls-2" d="M35.09,18.45a.83.83,0,0,0,.78-1.14A5.32,5.32,0,0,0,30.94,14h-1a4.47,4.47,0,0,0-4.35-3.64H23.77A4.46,4.46,0,0,0,19.43,14h-1a5.33,5.33,0,0,0-4.94,3.34.84.84,0,0,0,.79,1.14ZM23.77,12h1.79a2.76,2.76,0,0,1,2.62,2h-7A2.76,2.76,0,0,1,23.77,12Z"/><path class="cls-3" d="M16.55,36.66A2.53,2.53,0,0,0,19.07,39h11.2a2.53,2.53,0,0,0,2.52-2.34L34,20.13H15.38ZM27,24.63a.84.84,0,1,1,1.67.08l-.44,9a.85.85,0,0,1-.84.8.84.84,0,0,1-.84-.88Zm-5.48-.8a.84.84,0,0,1,.88.8l.45,9a.84.84,0,0,1-1.68.08l-.45-9a.85.85,0,0,1,.8-.88Z"/></g></g></svg>